# xmcd
#
# Track frame offsets: 
#        150
#        13068
#        32627
#        54386
#        72464
#        88647
#        103134
#        117461
#        133140
#        156556
#        180317
#        209008
#        227981
#        240932
#
# Disc length: 3486 seconds
#
# Revision: 0
# Processed by: cddbd v1.5.2PL0 Copyright (c) Steve Scherf et al.
# Submitted via: ExactAudioCopy v1.0b3
#
DISCID=c70d9c0e
DTITLE=Ruthie Foster - Let it Burn
DYEAR=2012
DGENRE=Blues
TTITLE0=Welcome Home
TTITLE1=Set Fire to the Rain
TTITLE2=This Time
TTITLE3=You Don't Miss Your Water
TTITLE4=Everlasting Light
TTITLE5=Lord Remember Me
TTITLE6=Ring of Fire
TTITLE7=Aim for the Heart
TTITLE8=It Makes No Difference
TTITLE9=Long Time Gone
TTITLE10=Don't Want to Know
TTITLE11=If I Had a Hammer
TTITLE12=The Titanic
TTITLE13=Truth! [New Orleans Funk Version]
EXTD=
EXTT0=
EXTT1=
EXTT2=
EXTT3=
EXTT4=
EXTT5=
EXTT6=
EXTT7=
EXTT8=
EXTT9=
EXTT10=
EXTT11=
EXTT12=
EXTT13=
PLAYORDER=
